# xmcd
#
# Track frame offsets: 
#        150
#        9595
#        23724
#        40338
#        55861
#        68304
#        85385
#        105102
#        125147
#        142118
#        159381
#        173923
#
# Disc length: 2604 seconds
#
# Revision: 0
# Processed by: cddbd v1.5.2PL0 Copyright (c) Steve Scherf et al.
# Submitted via: ExactAudioCopy v1.3
#
DISCID=940a2a0c
DTITLE=Run Boy Run - So Sang The Whippoorwill
DYEAR=2013
DGENRE=Country
TTITLE0=So Sang The Whippoorwill
TTITLE1=Get Up Jake
TTITLE2=Silver Dagger
TTITLE3=Red Rocking Chair
TTITLE4=Cora Belle
TTITLE5=Rowing Davey
TTITLE6=Little Girl
TTITLE7=Two Brothers
TTITLE8=Hoot Owl
TTITLE9=Down in the Willow Garden
TTITLE10=Lucinda Jones - Cherokee Trail
TTITLE11=In The Tea Garden
EXTD=
EXTT0=
EXTT1=
EXTT2=
EXTT3=
EXTT4=
EXTT5=
EXTT6=
EXTT7=
EXTT8=
EXTT9=
EXTT10=
EXTT11=
PLAYORDER=
